<svg aria-hidden="true" style="position: absolute; width: 0; height: 0; overflow: hidden;" version="1.1" xmlns="http://www.w3.org/2000/svg" xmlns:xlink="http://www.w3.org/1999/xlink">
<defs>
<symbol id="icon-chocolate" viewBox="0 0 27 32">
<path stroke-linejoin="round" stroke-linecap="round" stroke-miterlimit="4" stroke-width="2.7429" d="M20.111 23.118l-14.185-8.864M9.837 7.837l14.186 8.864M9.106 25.102l11.736-19.25M25.652 14.027c-3.040-1.899-4.234-3.384-2.278-6.592l-9.626-6.015-11.736 19.25 14.186 8.864 9.454-15.507z"></path>
</symbol>
<symbol id="icon-Icon" viewBox="0 0 48 32">
<path stroke-linejoin="round" stroke-linecap="round" stroke-miterlimit="4" stroke-width="4" d="M3 16h42M3 2h42M3 30h42"></path>
</symbol>
<symbol id="icon-twitter" viewBox="0 0 32 32">
<path stroke-linejoin="round" stroke-linecap="round" stroke-miterlimit="4" stroke-width="2.6667" d="M30.667 4c-1.277 0.901-2.691 1.589-4.187 2.040-0.803-0.923-1.87-1.578-3.057-1.875s-2.437-0.222-3.58 0.214c-1.143 0.436-2.125 1.213-2.812 2.226s-1.047 2.212-1.031 3.435v1.333c-2.343 0.061-4.665-0.459-6.759-1.513s-4.561-3.563-5.908-5.481c0 0-4.667 12.954 7.333 18.287-2.746 1.864-6.017 2.799-9.333 2.667 12 6.667 26.667 0 26.667-15.333-0.001-0.371-0.037-0.742-0.107-1.107 1.361-1.342 2.321-3.036 2.773-4.893z"></path>
</symbol>
<symbol id="icon-instagram" viewBox="0 0 32 32">
<path d="M31.969 9.408c-0.075-1.7-0.35-2.869-0.744-3.882-0.406-1.075-1.031-2.038-1.85-2.838-0.8-0.813-1.769-1.444-2.832-1.844-1.019-0.394-2.182-0.669-3.882-0.744-1.713-0.081-2.257-0.1-6.601-0.1s-4.888 0.019-6.595 0.094c-1.7 0.075-2.869 0.35-3.882 0.744-1.075 0.406-2.038 1.031-2.838 1.85-0.813 0.8-1.444 1.769-1.844 2.832-0.394 1.019-0.669 2.182-0.744 3.882-0.081 1.713-0.1 2.257-0.1 6.601s0.019 4.888 0.094 6.595c0.075 1.7 0.35 2.869 0.744 3.882 0.406 1.075 1.038 2.038 1.85 2.838 0.8 0.813 1.769 1.444 2.832 1.844 1.019 0.394 2.182 0.669 3.882 0.744 1.706 0.075 2.25 0.094 6.595 0.094s4.888-0.019 6.595-0.094c1.7-0.075 2.869-0.35 3.882-0.744 2.151-0.831 3.851-2.532 4.682-4.682 0.394-1.019 0.669-2.182 0.744-3.882 0.075-1.707 0.094-2.25 0.094-6.595s-0.006-4.888-0.081-6.595zM29.087 22.473c-0.069 1.563-0.331 2.407-0.55 2.969-0.538 1.394-1.644 2.5-3.038 3.038-0.563 0.219-1.413 0.481-2.969 0.55-1.688 0.075-2.194 0.094-6.464 0.094s-4.782-0.019-6.464-0.094c-1.563-0.069-2.407-0.331-2.969-0.55-0.694-0.256-1.325-0.663-1.838-1.194-0.531-0.519-0.938-1.144-1.194-1.838-0.219-0.563-0.481-1.413-0.55-2.969-0.075-1.688-0.094-2.194-0.094-6.464s0.019-4.782 0.094-6.464c0.069-1.563 0.331-2.407 0.55-2.969 0.256-0.694 0.663-1.325 1.2-1.838 0.519-0.531 1.144-0.938 1.838-1.194 0.563-0.219 1.413-0.481 2.969-0.55 1.688-0.075 2.194-0.094 6.464-0.094 4.276 0 4.782 0.019 6.464 0.094 1.563 0.069 2.407 0.331 2.969 0.55 0.694 0.256 1.325 0.662 1.838 1.194 0.531 0.519 0.938 1.144 1.194 1.838 0.219 0.563 0.481 1.413 0.55 2.969 0.075 1.688 0.094 2.194 0.094 6.464s-0.019 4.77-0.094 6.458z"></path>
<path d="M16.059 7.783c-4.538 0-8.22 3.682-8.22 8.22s3.682 8.22 8.22 8.22c4.538 0 8.22-3.682 8.22-8.22s-3.682-8.22-8.22-8.22zM16.059 21.335c-2.944 0-5.332-2.388-5.332-5.332s2.388-5.332 5.332-5.332c2.944 0 5.332 2.388 5.332 5.332s-2.388 5.332-5.332 5.332z"></path>
<path d="M26.524 7.458c0 1.060-0.859 1.919-1.919 1.919s-1.919-0.859-1.919-1.919c0-1.060 0.859-1.919 1.919-1.919s1.919 0.859 1.919 1.919z"></path>
</symbol>
<symbol id="icon-batto" viewBox="0 0 53 32">
<path d="M29.191 20.979c-0.331 0.333-0.724 0.598-1.157 0.778s-0.898 0.273-1.367 0.273c-0.469 0-0.934-0.093-1.367-0.273s-0.826-0.445-1.157-0.778l-16.284-16.32c-0.33-0.333-0.724-0.598-1.157-0.778s-0.898-0.273-1.367-0.273-0.934 0.093-1.367 0.273c-0.433 0.181-0.827 0.445-1.157 0.778-0.662 0.666-1.034 1.567-1.034 2.507s0.372 1.84 1.034 2.507l16.32 16.32c2 1.997 4.711 3.12 7.538 3.12s5.538-1.122 7.538-3.12l16.32-16.32c0.657-0.662 1.027-1.556 1.031-2.489 0.003-0.468-0.087-0.932-0.264-1.365s-0.438-0.827-0.767-1.159c-0.331-0.333-0.724-0.598-1.157-0.778s-0.898-0.273-1.367-0.273c-0.469 0-0.934 0.093-1.367 0.273s-0.827 0.445-1.157 0.778l-16.284 16.32z"></path>
</symbol>
<symbol id="icon-think" viewBox="0 0 32 32">
<path d="M13.511 0.472l8.602 8.613 0.091-0.091c0.18-0.176 0.422-0.276 0.674-0.279s0.496 0.092 0.68 0.264l0.998 0.998c0.349 0.349 0.36 0.88 0.095 1.25l-0.005 0.008-0.163 0.219 7.040 7.040c0.629 0.629 0.629 1.634 0 2.263l-10.777 10.777c-0.629 0.629-1.634 0.629-2.263 0l-5.082-5.082c-0.084 0.106-0.19 0.194-0.311 0.256s-0.253 0.099-0.389 0.106c-0.136 0.008-0.271-0.014-0.398-0.062s-0.242-0.123-0.338-0.22l-2.971-2.971c-0.176-0.18-0.276-0.421-0.279-0.674s0.092-0.496 0.264-0.68l0.007-0.008 0.088-0.087-8.602-8.602c-0.629-0.629-0.629-1.634 0-2.263l10.777-10.777c0.629-0.629 1.634-0.629 2.263 0v0.001zM21.033 10.163l-2.007-2.006c-0.063-0.065-0.139-0.117-0.222-0.152s-0.173-0.053-0.264-0.053c-0.091 0-0.18 0.018-0.264 0.053s-0.159 0.087-0.222 0.152l-4.091 4.091c-0.065 0.064-0.116 0.141-0.151 0.225s-0.053 0.175-0.053 0.266 0.018 0.182 0.053 0.266c0.035 0.084 0.086 0.161 0.151 0.225l1.999 1.999 0.697-0.697-1.789-1.789 3.669-3.68 1.793 1.799 0.701-0.701zM15.232 15.96l-2.005-2.005c-0.063-0.065-0.139-0.117-0.222-0.152s-0.173-0.053-0.264-0.053c-0.091 0-0.18 0.018-0.264 0.053s-0.159 0.087-0.222 0.152l-4.103 4.103c-0.274 0.263-0.274 0.697 0 0.971l2.002 2.002 0.704-0.704-1.794-1.787 3.68-3.669 1.787 1.786 0.699-0.698zM7.797 7.078l4.091 4.091c0.274 0.274 0.709 0.274 0.971-0.011l4.091-4.091c0.065-0.062 0.117-0.136 0.152-0.219s0.054-0.171 0.054-0.261h0.011c0-0.171-0.069-0.354-0.206-0.491l-4.091-4.091c-0.064-0.065-0.141-0.117-0.225-0.152s-0.175-0.053-0.266-0.053c-0.091 0-0.182 0.018-0.266 0.053s-0.161 0.087-0.225 0.152l-4.091 4.103c-0.274 0.263-0.274 0.697 0 0.971zM2.002 12.872l4.091 4.091c0.274 0.274 0.709 0.274 0.971 0l4.091-4.091c0.066-0.063 0.119-0.14 0.154-0.224s0.053-0.176 0.051-0.267h0.011c0-0.183-0.069-0.354-0.206-0.491l-4.091-4.091c-0.063-0.065-0.139-0.117-0.222-0.152s-0.173-0.053-0.264-0.053c-0.091 0-0.18 0.018-0.264 0.053s-0.159 0.087-0.222 0.152l-4.103 4.103c-0.274 0.263-0.274 0.697 0 0.971zM9.926 22.877l2.699 2.701 11.013-14.903-0.749-0.749-12.963 12.951z"></path>
<path d="M13.511 0.472l8.602 8.613 0.091-0.091c0.18-0.176 0.422-0.276 0.674-0.279s0.496 0.092 0.68 0.264l0.998 0.998c0.349 0.349 0.36 0.88 0.095 1.25l-0.005 0.008-0.163 0.219 7.040 7.040c0.629 0.629 0.629 1.634 0 2.263l-10.777 10.777c-0.629 0.629-1.634 0.629-2.263 0l-5.082-5.082c-0.084 0.106-0.19 0.194-0.311 0.256s-0.253 0.099-0.389 0.106c-0.136 0.008-0.271-0.014-0.398-0.062s-0.242-0.123-0.338-0.22l-2.971-2.971c-0.176-0.18-0.276-0.421-0.279-0.674s0.092-0.496 0.264-0.68l0.007-0.008 0.088-0.087-8.602-8.602c-0.629-0.629-0.629-1.634 0-2.263l10.777-10.777c0.629-0.629 1.634-0.629 2.263 0v0.001zM21.033 10.163l-2.007-2.006c-0.063-0.065-0.139-0.117-0.222-0.152s-0.173-0.053-0.264-0.053c-0.091 0-0.18 0.018-0.264 0.053s-0.159 0.087-0.222 0.152l-4.091 4.091c-0.065 0.064-0.116 0.141-0.151 0.225s-0.053 0.175-0.053 0.266 0.018 0.182 0.053 0.266c0.035 0.084 0.086 0.161 0.151 0.225l1.999 1.999 0.697-0.697-1.789-1.789 3.669-3.68 1.793 1.799 0.701-0.701zM15.232 15.96l-2.005-2.005c-0.063-0.065-0.139-0.117-0.222-0.152s-0.173-0.053-0.264-0.053c-0.091 0-0.18 0.018-0.264 0.053s-0.159 0.087-0.222 0.152l-4.103 4.103c-0.274 0.263-0.274 0.697 0 0.971l2.002 2.002 0.704-0.704-1.794-1.787 3.68-3.669 1.787 1.786 0.699-0.698zM7.797 7.078l4.091 4.091c0.274 0.274 0.709 0.274 0.971-0.011l4.091-4.091c0.065-0.062 0.117-0.136 0.152-0.219s0.054-0.171 0.054-0.261h0.011c0-0.171-0.069-0.354-0.206-0.491l-4.091-4.091c-0.064-0.065-0.141-0.117-0.225-0.152s-0.175-0.053-0.266-0.053c-0.091 0-0.182 0.018-0.266 0.053s-0.161 0.087-0.225 0.152l-4.091 4.103c-0.274 0.263-0.274 0.697 0 0.971zM2.002 12.872l4.091 4.091c0.274 0.274 0.709 0.274 0.971 0l4.091-4.091c0.066-0.063 0.119-0.14 0.154-0.224s0.053-0.176 0.051-0.267h0.011c0-0.183-0.069-0.354-0.206-0.491l-4.091-4.091c-0.063-0.065-0.139-0.117-0.222-0.152s-0.173-0.053-0.264-0.053c-0.091 0-0.18 0.018-0.264 0.053s-0.159 0.087-0.222 0.152l-4.103 4.103c-0.274 0.263-0.274 0.697 0 0.971zM9.926 22.877l2.699 2.701 11.013-14.903-0.749-0.749-12.963 12.951z"></path>
</symbol>
<symbol id="icon-dol" viewBox="0 0 32 32">
<path d="M16 0.762c-8.381 0-15.238 6.857-15.238 15.238s6.857 15.238 15.238 15.238c8.381 0 15.238-6.857 15.238-15.238s-6.857-15.238-15.238-15.238zM16 28.19c-6.705 0-12.19-5.486-12.19-12.19s5.486-12.191 12.19-12.191c6.705 0 12.191 5.486 12.191 12.191s-5.486 12.19-12.191 12.19z"></path>
<path d="M17.981 14.476h-3.962c-0.762 0-1.371-0.61-1.371-1.371s0.61-1.371 1.371-1.371h5.638c0.914 0 1.524-0.61 1.524-1.524s-0.61-1.524-1.524-1.524h-2.133v-1.371c0-0.914-0.61-1.524-1.524-1.524s-1.524 0.61-1.524 1.524v1.371h-0.457c-2.438 0-4.419 1.981-4.419 4.419s1.981 4.419 4.419 4.419h3.809c0.762 0 1.371 0.61 1.371 1.371s-0.61 1.371-1.371 1.371h-5.638c-0.914 0-1.524 0.61-1.524 1.524s0.61 1.524 1.524 1.524h2.286v1.371c0 0.914 0.61 1.524 1.524 1.524s1.524-0.61 1.524-1.524v-1.371h0.457c2.438 0 4.419-1.981 4.419-4.419s-1.981-4.419-4.419-4.419z"></path>
</symbol>
<symbol id="icon-spoon" viewBox="0 0 32 32">
<path d="M15.373 13.835c-0.894-1.086-1.345-2.418-1.345-3.751 0-4.941 5.921-9.877 11.842-9.877 3.269 0 5.921 2.653 5.921 5.922 0 5.922-4.934 11.845-9.881 11.845-1.332 0-2.665-0.45-3.75-1.345l-14.581 14.584c-0.771 0.771-2.023 0.771-2.794 0s-0.771-2.024 0-2.795l14.587-14.584z"></path>
</symbol>
</defs>
</svg>
